<?xml version="1.0" encoding="UTF-8"?>
<svg id="Layer_2" data-name="Layer 2" xmlns="http://www.w3.org/2000/svg" xmlns:xlink="http://www.w3.org/1999/xlink" viewBox="0 0 191.94 66.44">
  <defs>
    <style>
      .cls-1 {
        fill: url(#m5-2);
      }

      .cls-1, .cls-2, .cls-3, .cls-4, .cls-5, .cls-6, .cls-7, .cls-8, .cls-9, .cls-10, .cls-11, .cls-12, .cls-13, .cls-14, .cls-15, .cls-16, .cls-17, .cls-18 {
        stroke-width: 0px;
      }

      .cls-2 {
        fill: url(#m5-2-10);
      }

      .cls-3 {
        fill: url(#m5-2-11);
      }

      .cls-4 {
        fill: url(#m5-2-12);
      }

      .cls-5 {
        fill: url(#m5-2-13);
      }

      .cls-6 {
        fill: url(#m5-2-16);
      }

      .cls-7 {
        fill: url(#m5-2-17);
      }

      .cls-8 {
        fill: url(#m5-2-14);
      }

      .cls-9 {
        fill: url(#m5-2-15);
      }

      .cls-10 {
        fill: url(#m5-2-8);
      }

      .cls-11 {
        fill: url(#m5-2-9);
      }

      .cls-12 {
        fill: url(#m5-2-3);
      }

      .cls-13 {
        fill: url(#m5-2-2);
      }

      .cls-14 {
        fill: url(#m5-2-4);
      }

      .cls-15 {
        fill: url(#m5-2-5);
      }

      .cls-16 {
        fill: url(#m5-2-6);
      }

      .cls-17 {
        fill: url(#m5-2-7);
      }

      .cls-18 {
        fill: #414042;
      }
    </style>
    <linearGradient id="m5-2" x1="-12.3" y1="65.36" x2="474.05" y2="17.63" gradientUnits="userSpaceOnUse">
      <stop offset="0" stop-color="#f6a71c"/>
      <stop offset=".07" stop-color="#cb851f"/>
      <stop offset=".15" stop-color="#a56623"/>
      <stop offset=".19" stop-color="#975b25"/>
      <stop offset=".22" stop-color="#9a5e24"/>
      <stop offset=".25" stop-color="#a66723"/>
      <stop offset=".28" stop-color="#b97621"/>
      <stop offset=".31" stop-color="#d58c1f"/>
      <stop offset=".33" stop-color="#f6a71c"/>
      <stop offset=".5" stop-color="#3d1f14"/>
      <stop offset=".59" stop-color="#6b4116"/>
      <stop offset=".78" stop-color="#e1971b"/>
      <stop offset=".81" stop-color="#f6a71c"/>
      <stop offset=".85" stop-color="#f1a31c"/>
      <stop offset=".89" stop-color="#e4981d"/>
      <stop offset=".93" stop-color="#ce871f"/>
      <stop offset=".97" stop-color="#af6e22"/>
      <stop offset="1" stop-color="#975b25"/>
    </linearGradient>
    <linearGradient id="m5-2-2" data-name="m5-2" x1="-12.01" y1="68.32" x2="474.35" y2="20.59" xlink:href="#m5-2"/>
    <linearGradient id="m5-2-3" data-name="m5-2" x1="-12.14" y1="66.96" x2="474.21" y2="19.23" xlink:href="#m5-2"/>
    <linearGradient id="m5-2-4" data-name="m5-2" x1="-11.85" y1="69.98" x2="474.51" y2="22.25" xlink:href="#m5-2"/>
    <linearGradient id="m5-2-5" data-name="m5-2" x1="-11.79" y1="70.57" x2="474.57" y2="22.84" xlink:href="#m5-2"/>
    <linearGradient id="m5-2-6" data-name="m5-2" x1="-11.71" y1="71.35" x2="474.64" y2="23.62" xlink:href="#m5-2"/>
    <linearGradient id="m5-2-7" data-name="m5-2" x1="-11.8" y1="70.48" x2="474.56" y2="22.76" xlink:href="#m5-2"/>
    <linearGradient id="m5-2-8" data-name="m5-2" x1="-11.84" y1="70.07" x2="474.52" y2="22.35" xlink:href="#m5-2"/>
    <linearGradient id="m5-2-9" data-name="m5-2" x1="-11.55" y1="73.06" x2="474.81" y2="25.34" xlink:href="#m5-2"/>
    <linearGradient id="m5-2-10" data-name="m5-2" x1="-11.47" y1="73.89" x2="474.89" y2="26.16" xlink:href="#m5-2"/>
    <linearGradient id="m5-2-11" data-name="m5-2" x1="-16.55" y1="22.11" x2="469.81" y2="-25.62" xlink:href="#m5-2"/>
    <linearGradient id="m5-2-12" data-name="m5-2" x1="-16.44" y1="23.16" x2="469.91" y2="-24.57" xlink:href="#m5-2"/>
    <linearGradient id="m5-2-13" data-name="m5-2" x1="-16.38" y1="23.77" x2="469.97" y2="-23.96" xlink:href="#m5-2"/>
    <linearGradient id="m5-2-14" data-name="m5-2" x1="-16.56" y1="22" x2="469.8" y2="-25.73" xlink:href="#m5-2"/>
    <linearGradient id="m5-2-15" data-name="m5-2" x1="-16.48" y1="22.83" x2="469.88" y2="-24.9" xlink:href="#m5-2"/>
    <linearGradient id="m5-2-16" data-name="m5-2" x1="-16.29" y1="24.71" x2="470.07" y2="-23.02" xlink:href="#m5-2"/>
    <linearGradient id="m5-2-17" data-name="m5-2" x1="-14.41" y1="43.84" x2="471.94" y2="-3.89" xlink:href="#m5-2"/>
  </defs>
  <g id="Layer_1-2" data-name="Layer 1">
    <g>
      <g>
        <path class="cls-18" d="M78.59,25.02h5.43c1.23,0,3.6,0,5.05,1.16,1.3,1.04,1.35,2.54,1.35,4.06v5.79c0,2.04-.09,3.58-1.42,4.72-1.21,1.02-2.59,1.02-4.46,1.02h-5.95v-16.74ZM85.7,29.74c0-.43,0-.83-.19-1.09-.28-.4-.5-.4-2.18-.4v10.39h1.04c1.02,0,1.33-.31,1.33-1.38v-7.52Z"/>
        <g>
          <path class="cls-18" d="M102.59,40.15c0,.95.14,1.19.59,1.61h-5.07v-1.11c-.74.59-1.73,1.42-3.53,1.42-.88,0-1.54-.24-1.99-.52-1.04-.71-1.09-1.68-1.09-2.92,0-2.94.9-3.49,4.17-4.27,1.54-.36,1.71-.4,2.44-.73,0-1.28,0-1.4-.24-1.66-.21-.21-.5-.24-.76-.24-.95,0-.95.64-.95,1.78h-4.15c0-1.92,0-3.01,1.52-3.89.92-.55,2.23-.78,3.84-.78.57,0,1.66,0,2.73.33,2.49.78,2.49,2.58,2.49,3.58v7.4ZM98.11,35.69c-1.85.71-2.13.83-2.13,1.83,0,.47,0,1.26.05,1.42.12.52.5.69.95.69,1.14,0,1.14-.76,1.14-1.19v-2.75Z"/>
          <path class="cls-18" d="M114.85,41.76h-4.51v-9.03c0-.38,0-1.19-.9-1.19-1,0-1,.83-1,1.19v9.03h-4.48v-12.64h4.48v1.26c.38-.47,1.21-1.52,2.99-1.52,1.09,0,2.13.38,2.77,1.26.62.83.64,1.9.64,3.04v8.61Z"/>
          <path class="cls-18" d="M126.71,33.98h-4.27v-1.26c0-.38,0-1.02-.97-1.02s-.95.66-.95,1.02v5.29c0,.59.12,1.14.95,1.14.21,0,.55-.02.78-.28.19-.24.19-.33.19-1.66h4.43c0,1.87,0,2.68-.95,3.58-1.33,1.26-3.44,1.26-4.08,1.26-5.38,0-5.79-2.32-5.79-4.03v-4.91c0-1.35,0-4.27,5.22-4.27,1.02,0,1.87.07,2.73.33,2.7.83,2.7,2.7,2.7,3.49v1.33Z"/>
        </g>
        <path class="cls-18" d="M138.67,36.12h-6.33v1.87c0,.43,0,1.23,1.04,1.23s1-.52,1-1.85h4.29c0,1.61,0,2.75-1.16,3.68-.78.64-1.87,1-4.22,1-5.26,0-5.45-2.23-5.45-4.34v-4.34c0-2.51.31-4.55,5.26-4.55,1.28,0,2.61.09,3.77.64,1.8.85,1.8,2.4,1.8,3.44v3.23ZM132.33,34.1h2.11v-1.54c0-.33,0-1.09-1.04-1.09s-1.07.74-1.07,1.11v1.52Z"/>
        <path class="cls-18" d="M143.98,37.49c0,.33,0,1.35,1.16,1.35,1.09,0,1.09-.92,1.09-1.38,0-.9-.21-1.07-1.87-2.23-4.1-2.92-4.65-3.3-4.65-5.79,0-1.3,0-4.72,5.55-4.72,1.38,0,2.73.21,3.87.95,1.66,1.14,1.66,2.61,1.61,4.62h-4.39v-1.11c0-.31,0-1.23-1.11-1.23-.88,0-1.04.66-1.04,1.09,0,.57.36.88.83,1.23.36.28,2.18,1.59,2.58,1.87,2.39,1.83,3.32,2.56,3.32,5.19,0,1.54-.14,4.67-5.71,4.67-.21,0-2.56,0-3.87-.66-2.02-1.04-1.99-2.96-1.97-4.98h4.6v1.11Z"/>
        <g>
          <path class="cls-18" d="M163.05,38.08c0,.85-.02,1.64-.36,2.32-.76,1.64-2.54,1.64-3.06,1.64-2.04,0-2.75-.92-3.18-1.66v5.36h-4.46v-16.62h4.46v1.57c.28-.59.9-1.83,3.08-1.83.74,0,1.3.09,1.83.33,1.68.76,1.68,2.25,1.68,3.15v5.74ZM158.57,32.8c0-.43,0-1.16-1.04-1.16s-1.07.76-1.07,1.21v5.34c0,.33,0,1.16,1.04,1.16s1.07-.74,1.07-1.19v-5.36Z"/>
          <path class="cls-18" d="M164.12,32.84c0-1.09,0-3.04,2.54-3.72.76-.21,1.8-.33,2.87-.33,5.74,0,5.74,2.44,5.74,4.1v4.84c0,1.23,0,2.68-1.52,3.58-1.21.73-2.99.73-3.75.73-2.42,0-3.51-.28-4.27-.71-1.52-.81-1.61-2.16-1.61-3.39v-5.1ZM170.83,32.96c0-.45-.05-1.23-1.14-1.23s-1.14.76-1.14,1.16v4.96c0,.47,0,1.33,1.16,1.33s1.11-.81,1.11-1.38v-4.84Z"/>
          <path class="cls-18" d="M180.98,31.09c.59-1.04,1.14-1.8,2.7-2.13v4.1c-1.97,0-2.7,0-2.7,1.87v6.83h-4.48v-12.64h4.48v1.97Z"/>
        </g>
        <path class="cls-18" d="M189.83,24.99v4.13h1.99v2.42h-1.99v6.55c0,.28,0,.64.28.88.24.19.33.19,1.83.24v2.56h-3.27c-.78,0-1.64,0-2.35-.62-.83-.69-.88-1.64-.88-2.51v-7.09h-1.87v-2.42h1.87v-4.13h4.39Z"/>
      </g>
      <g>
        <path class="cls-18" d="M58.8,42.22c-1.93,0-4.06-.83-6.73-1.88l-.65-.25-.3-.48c.08-1.06.17-2.23.3-3.5.5-4.96,1.85-8.96,2.94-12.17,1.85-5.45,2.77-8.19-1.76-9.95-2.16-.84-5.56-1.45-10.09-1.81l-.43-.59c.41-1.73.72-2.83.72-2.83.12-.26,2.24-4.41,6.08-4.58,1.09-.03,4.19.58,7.77,1.31,2.61.53,5.32,1.08,7.21,1.36,4.24.61,4.74,4.85,5.22,8.96.06.54.13,1.09.2,1.64h0c.63,4.7-2.68,20.37-6.77,23.48-1.22.93-2.42,1.3-3.71,1.3ZM52.1,39.32l.32.13c4.44,1.74,6.89,2.71,9.51.71,3.7-2.81,6.97-18.28,6.4-22.59-.07-.55-.14-1.11-.2-1.66-.48-4.09-.89-7.62-4.4-8.12-1.92-.27-4.64-.83-7.27-1.37-3.22-.66-6.53-1.35-7.53-1.29-3.24.14-5.16,3.82-5.23,3.96,0,0-.23.84-.55,2.17,4.35.38,7.64.99,9.8,1.83,5.39,2.1,4.16,5.7,2.32,11.15-1.07,3.17-2.41,7.11-2.89,11.96-.11,1.12-.2,2.16-.27,3.12Z"/>
        <path class="cls-18" d="M23.57,59.57c-4.91,0-10.06-.45-13.31-1.53-7.12-2.38-8.16-14.01-6.35-19.55.7-2.14.07-6.42-.53-10.56-.93-6.37-1.81-12.39,1.05-13.93l.88-.48c3.96-2.18,10.59-5.84,15.43-1.68l-.12.8c-1.23.53-2.24,1.29-2.25,1.3l-.14.07c-1.24.48-5.03,11.94-6.09,22.27-.67,6.55-.03,10.82,1.81,12h0c5.2,3.34,13.65,5.01,22.6,4.45l.32.1.33.26c.05.05,1.12,1.3.87,2.75-.15.89-.75,1.63-1.78,2.22-1.63.92-7.01,1.53-12.72,1.53ZM15.5,10.9c-3.47,0-7.18,2.04-9.72,3.44l-.89.49c-2.27,1.22-1.36,7.45-.56,12.95.65,4.45,1.26,8.65.5,11-1.66,5.08-.71,16.19,5.74,18.34,6.68,2.23,22.41,1.68,25.25.08.77-.43,1.21-.95,1.31-1.54.15-.89-.48-1.75-.62-1.92l-.07-.05c-9.08.54-17.67-1.19-23-4.61h0c-2.96-1.91-2.76-8.86-2.08-14.36,1.1-8.73,4.4-20.6,6.49-21.59.18-.13.83-.59,1.68-1.03-1.24-.86-2.61-1.19-4.03-1.19Z"/>
        <path class="cls-18" d="M33.18,53.78c-7.85,0-15.06-1.69-19.75-4.71-2.97-1.91-2.76-8.86-2.07-14.36,1.1-8.73,4.4-20.6,6.49-21.59.23-.17,1.21-.86,2.4-1.37.43-.19.84-.33,1.24-.43,1.32-.33,11.94-.84,21.11-.1l.43.59c-.7,2.93-1.9,8.54-2.09,13.08-.06,1.45-.2,2.72-.32,3.84-.5,4.72-.69,6.49,5.78,8.53,2.02.64,3.78,1.3,5.39,1.93l.3.48c-.06.86-.11,1.66-.16,2.4-.52,8.15-.86,9.55-10.04,11.02-1.73.28-3.5.47-5.26.58-1.15.07-2.3.11-3.43.11ZM32.29,11.81c-5.51,0-9.93.29-10.57.45-.34.09-.71.21-1.09.38-1.22.53-2.24,1.29-2.25,1.3l-.14.07c-1.24.48-5.03,11.93-6.09,22.26-.67,6.56-.03,10.83,1.81,12.01,5.2,3.34,13.66,5.01,22.6,4.45,1.73-.11,3.47-.3,5.17-.57,8.69-1.39,8.75-2.38,9.24-10.13.04-.64.08-1.33.14-2.06-1.5-.58-3.14-1.2-5-1.78h0c-7.22-2.27-6.96-4.7-6.44-9.54.12-1.11.25-2.36.31-3.78.17-4.18,1.15-9.12,1.99-12.72-3.26-.24-6.63-.33-9.67-.33Z"/>
      </g>
      <g>
        <g>
          <path class="cls-1" d="M78.6,48.51c0-1.29.17-2.22,2.03-2.22.45,0,.93.03,1.52.08v1.94c-.79-.03-1.24-.03-1.24.87v1.97h1.32v1.86h-1.35v13.17h-2.31v-13.17h-1.24v-1.86h1.27v-2.65Z"/>
          <g>
            <path class="cls-13" d="M83.1,55.24c0-1.07,0-1.89.28-2.53.45-1.21,1.69-1.83,3.1-1.83,3.32,0,3.32,2.7,3.32,3.38v4.9h-4.48v4.22c0,.42,0,1.24,1.07,1.24s1.13-.93,1.13-1.38v-2.65h2.28v2.14c0,.9,0,3.72-3.43,3.72-.48,0-.93-.06-1.35-.2-1.91-.62-1.91-2.25-1.91-2.93v-8.08ZM87.52,54.11c0-.62,0-1.38-1.04-1.38-1.15,0-1.15.93-1.15,1.63v2.9h2.2v-3.15Z"/>
            <path class="cls-12" d="M96.02,46.29h2.28v19.9h-2.28v-1.04c-.37.51-.87,1.27-2.08,1.27-2.28,0-2.28-2.05-2.28-2.7v-10.02c0-1.55.56-2.79,2.31-2.79.99,0,1.55.59,2.05,1.13v-5.74ZM96.02,54.39c0-.48-.03-1.44-1.04-1.44-1.1,0-1.1.98-1.1,1.55v8.67c0,.39,0,1.21,1.01,1.21,1.13,0,1.13-1.27,1.13-1.77v-8.22Z"/>
            <path class="cls-14" d="M100.16,55.24c0-1.07,0-1.89.28-2.53.45-1.21,1.69-1.83,3.1-1.83,3.32,0,3.32,2.7,3.32,3.38v4.9h-4.48v4.22c0,.42,0,1.24,1.07,1.24s1.12-.93,1.12-1.38v-2.65h2.28v2.14c0,.9,0,3.72-3.43,3.72-.48,0-.93-.06-1.35-.2-1.91-.62-1.91-2.25-1.91-2.93v-8.08ZM104.57,54.11c0-.62,0-1.38-1.04-1.38-1.15,0-1.15.93-1.15,1.63v2.9h2.2v-3.15Z"/>
          </g>
          <path class="cls-15" d="M110.91,52.84c.42-.87.9-1.91,2.31-1.91.23,0,.42.03.62.06v2.62c-.28-.2-.68-.45-1.35-.45-1.6,0-1.63,1.89-1.63,2.93v10.1h-2.25v-15.09h2.31v1.74Z"/>
          <path class="cls-16" d="M114.09,54.11c0-.84,0-3.27,3.26-3.27s3.27,2.25,3.27,3.24v9.54c0,.93.03,1.74.42,2.56h-2.42c-.23-.53-.25-.65-.39-1.21-.42.65-.93,1.38-2.17,1.38-2.14,0-2.14-1.8-2.14-2.53v-2.67c0-1.1,0-1.94,1.38-2.81l2.17-1.35c.48-.31.9-.73.9-.87v-2.25c0-.51-.08-1.15-.99-1.15-.98,0-.98.7-.98,1.13v2.11h-2.31v-1.83ZM118.36,58.7c-.23.2-.9.68-1.38.99-.65.45-.82.9-.82,1.55v1.52c0,.79,0,1.8.9,1.8,1.29,0,1.29-1.94,1.29-2.31v-3.55Z"/>
          <path class="cls-17" d="M125.29,47.89v3.27h1.29v1.86h-1.29v10.41c0,1.01.34,1.13,1.46,1.07v1.72c-.39.06-.79.14-1.29.14-2.28,0-2.45-.87-2.45-2.48v-10.86h-1.35v-1.86h1.38v-3.27h2.25Z"/>
          <g>
            <path class="cls-10" d="M127.59,51.13h2.25v15.06h-2.25v-15.06ZM129.87,46.37v3.01h-2.22v-3.01h2.22Z"/>
            <path class="cls-11" d="M131.87,55.18c0-1.46,0-4.31,3.43-4.31s3.32,2.39,3.32,3.52v8.47c0,1.01-.06,3.57-3.43,3.57s-3.32-2.53-3.32-4.31v-6.95ZM136.4,54.17c0-.7-.03-1.44-1.1-1.44-1.18,0-1.18.96-1.18,1.63v8.87c0,.59,0,1.35,1.1,1.35s1.18-.84,1.18-1.52v-8.89Z"/>
          </g>
          <path class="cls-2" d="M142.59,52.08c.39-.48.98-1.24,2.22-1.24,2.28,0,2.28,2.11,2.28,3.12v12.22h-2.31v-11.79c0-.65,0-1.46-.99-1.46-1.18,0-1.18,1.1-1.18,1.86v11.4h-2.25v-15.06h2.22v.96Z"/>
        </g>
        <g>
          <g>
            <path class="cls-3" d="M79.52,4.88l.57,7.57c.11,1.56.11,3.01.11,4.37h.17c.09-.94.17-1.96.4-3.77l1.08-8.17h1.64l.99,8.34c.06.34.2,2.13.34,3.63h.2c0-2.35,0-2.78.17-4.91l.6-7.06h2.24l-1.9,15.17h-2.55l-.57-4.82c-.25-1.96-.25-3.15-.25-4.82h-.23c0,1.96-.11,3.29-.14,3.6l-.74,6.04h-2.53l-1.79-15.17h2.18Z"/>
            <path class="cls-4" d="M89.13,8.96c0-1.47,0-4.34,3.46-4.34s3.35,2.41,3.35,3.55v8.54c0,1.02-.06,3.6-3.46,3.6s-3.35-2.55-3.35-4.34v-7.01ZM93.7,7.94c0-.71-.03-1.45-1.11-1.45-1.19,0-1.19.96-1.19,1.65v8.93c0,.6,0,1.36,1.11,1.36s1.19-.85,1.19-1.53V7.94Z"/>
            <path class="cls-5" d="M100.11,6.61c.43-.88.91-1.93,2.33-1.93.23,0,.42.03.62.06v2.64c-.28-.2-.68-.45-1.36-.45-1.62,0-1.64,1.9-1.64,2.95v10.18h-2.27V4.85h2.33v1.76Z"/>
            <path class="cls-8" d="M104.13.03h2.3v20.02h-2.3V.03Z"/>
          </g>
          <path class="cls-9" d="M112.84,0h2.3v20.05h-2.3v-1.05c-.37.51-.88,1.28-2.1,1.28-2.3,0-2.3-2.07-2.3-2.72V7.46c0-1.56.57-2.81,2.33-2.81.99,0,1.56.6,2.07,1.13V0ZM112.84,8.17c0-.48-.03-1.45-1.05-1.45-1.11,0-1.11.99-1.11,1.56v8.74c0,.4,0,1.22,1.02,1.22,1.13,0,1.13-1.28,1.13-1.79v-8.28Z"/>
        </g>
        <g>
          <path class="cls-6" d="M29.27,17.92c2.85-1.82,5.67,1.49,2.74,3.8-2.93,2.31-3.5.83-3.95-1.55-.2-1.07.42-1.71,1.21-2.25"/>
          <path class="cls-7" d="M15.38,63.44s-5.06-11.54.06-22.58c5.12-11.04,9.93-12.21,6.66-17.64-3.27-5.43-5.61-6.69-7.49-7.77,0,0-3.35-1.91,1.67-.18,5.02,1.73,10,6.72,11.07,7.71,1.07.99,2.43,1.72,4.61.16,1.15-.82,6.29-4.19,10.28-5.39,3.99-1.19,10.09-1.95,7.48-1.07-6.91,2.34-18.85,10.82-21.8,20.36-.86,2.8-1.37,6.68-.78,9.83.99,5.31,4.03,11.47,6.58,14.68,2.96,3.72,3.78,5.91-1.5,1.31-6.09-5.31-9.42-13-10.69-17.6-1.66-5.98-3.48.42-4.54,9.8-.94,8.21.45,13.65-1.6,8.39"/>
        </g>
      </g>
      <g>
        <path class="cls-18" d="M9.4,59.78S1.75,52.22.39,46.05c-1.36-6.17,1.16-7.34,2.46-7.89,1.36-.58,4.76-.91,7.4-1.32.2-.03.66-.07.81-.62,0,0,1.08-4.19,3.62-8.2.25-.39,5.41-7.98,5.98-10.18.57-2.2.39-4.17-.19-5.02-.58-.84.08-.49.58.21.49.7,2.82,3.72.74,8.57-2.08,4.85-2.71,5.49-2.8,5.76-.08.27.1.23.43.08.33-.14,8.31-3.58,13.72-3.93,5.41-.35,5.4-.02,4.38.19-1.02.22-8.14,1.51-13.42,5.43-5.27,3.92-6.48,8.53-6.77,9.9-.09.43-.86,6.91-.12,13.26.33,2.82,1.81,10.44,2.54,12.41.77,2.07-1.63-.96-3.03-4.04-1.81-4-3.77-8.73-5.18-13.51-.63-2.11-.31-3.21-2.16-3.39-1.85-.18-4.38.49-4.38,2.1s1.64,6.75,3.93,11.6c1.64,3.47,2.67,4.35.46,2.33"/>
        <path class="cls-18" d="M23.19,20.97c2.48-1.51,4.94,1.24,2.38,3.16-2.55,1.92-3.05.69-3.44-1.29-.18-.89.36-1.43,1.06-1.87"/>
      </g>
    </g>
  </g>
</svg>